<svg width="80" height="80" viewBox="0 0 80 80" fill="none" xmlns="http://www.w3.org/2000/svg">
<path d="M6.26874 9.055L13.1012 65.6125C13.3437 67.6163 14.7725 69.2812 16.7262 69.8362L38.645 76.0575C39.5312 76.3088 40.47 76.315 41.36 76.0738L64.4125 69.8287C66.43 69.2825 67.8987 67.5575 68.1062 65.49L73.7925 9.00625C73.9412 7.53 72.775 6.25 71.2812 6.25H8.77374C7.26124 6.25 6.08749 7.56375 6.26874 9.055Z" fill="#F6D397"/>
<path d="M65.4462 12.5H40V70C40.3725 70.0025 40.7437 69.9512 41.1062 69.8462L59.8588 64.3825C61.5 63.905 62.695 62.395 62.8638 60.5863L67.49 14.9125C67.61 13.62 66.6612 12.5 65.4462 12.5Z" fill="#F9E3AE"/>
<path d="M40.0313 77.5C39.45 77.5 38.8688 77.42 38.3038 77.2612L16.3838 71.0388C13.9388 70.3438 12.1625 68.2725 11.86 65.7625L5.02626 9.205C4.89751 8.1425 5.23251 7.07375 5.94251 6.27125C6.66001 5.46375 7.69126 5 8.77376 5H71.2825C72.35 5 73.3725 5.45375 74.0875 6.24375C74.7963 7.02875 75.1438 8.08125 75.0375 9.1325L69.35 65.615C69.0925 68.1788 67.24 70.3575 64.74 71.035L41.6875 77.28C41.145 77.4263 40.5888 77.5 40.0313 77.5ZM8.77376 7.5C8.40126 7.5 8.06126 7.6525 7.81501 7.93C7.57501 8.20125 7.46626 8.5475 7.51001 8.905L14.3438 65.4625C14.5263 66.97 15.595 68.215 17.0688 68.6338L38.9875 74.855C39.6538 75.045 40.3663 75.0488 41.0338 74.8663L64.0863 68.6212C65.5925 68.2137 66.7088 66.9037 66.8638 65.365L72.55 8.88125C72.585 8.52625 72.4725 8.185 72.2338 7.92C71.9875 7.64875 71.6488 7.5 71.2813 7.5H8.77376Z" fill="#8D6C9F"/>
<path d="M71.25 15C70.5588 15 70 14.44 70 13.75V11.25C70 10.56 70.5588 10 71.25 10C71.9412 10 72.5 10.56 72.5 11.25V13.75C72.5 14.44 71.9412 15 71.25 15ZM65 15C64.3088 15 63.75 14.44 63.75 13.75V11.25C63.75 10.56 64.3088 10 65 10C65.6912 10 66.25 10.56 66.25 11.25V13.75C66.25 14.44 65.6912 15 65 15ZM58.75 15C58.0588 15 57.5 14.44 57.5 13.75V11.25C57.5 10.56 58.0588 10 58.75 10C59.4412 10 60 10.56 60 11.25V13.75C60 14.44 59.4412 15 58.75 15ZM52.5 15C51.8088 15 51.25 14.44 51.25 13.75V11.25C51.25 10.56 51.8088 10 52.5 10C53.1912 10 53.75 10.56 53.75 11.25V13.75C53.75 14.44 53.1912 15 52.5 15ZM46.25 15C45.5588 15 45 14.44 45 13.75V11.25C45 10.56 45.5588 10 46.25 10C46.9412 10 47.5 10.56 47.5 11.25V13.75C47.5 14.44 46.9412 15 46.25 15ZM40 15C39.3088 15 38.75 14.44 38.75 13.75V11.25C38.75 10.56 39.3088 10 40 10C40.6912 10 41.25 10.56 41.25 11.25V13.75C41.25 14.44 40.6912 15 40 15ZM33.75 15C33.0588 15 32.5 14.44 32.5 13.75V11.25C32.5 10.56 33.0588 10 33.75 10C34.4412 10 35 10.56 35 11.25V13.75C35 14.44 34.4412 15 33.75 15ZM27.5 15C26.8088 15 26.25 14.44 26.25 13.75V11.25C26.25 10.56 26.8088 10 27.5 10C28.1912 10 28.75 10.56 28.75 11.25V13.75C28.75 14.44 28.1912 15 27.5 15ZM21.25 15C20.5588 15 20 14.44 20 13.75V11.25C20 10.56 20.5588 10 21.25 10C21.9412 10 22.5 10.56 22.5 11.25V13.75C22.5 14.44 21.9412 15 21.25 15ZM15 15C14.3088 15 13.75 14.44 13.75 13.75V11.25C13.75 10.56 14.3088 10 15 10C15.6912 10 16.25 10.56 16.25 11.25V13.75C16.25 14.44 15.6912 15 15 15ZM8.75 15C8.05875 15 7.5 14.44 7.5 13.75V11.25C7.5 10.56 8.05875 10 8.75 10C9.44125 10 10 10.56 10 11.25V13.75C10 14.44 9.44125 15 8.75 15Z" fill="#8D6C9F"/>
<path d="M30 23.75C30 34.1663 30 44.5837 30 55C26.25 54.1663 22.5 53.3337 18.75 52.5C19.0062 55 19.2625 57.5 19.5187 60C25.0962 61.59 30.6725 63.1787 36.25 64.7687V23.75C34.1662 23.75 32.0838 23.75 30 23.75Z" fill="#FAEFDE"/>
<path d="M62.2762 30.06L62.82 23.75C56.4637 23.75 50.1062 23.75 43.75 23.75C43.75 32.9163 43.75 42.0837 43.75 51.25C47.4775 50.3887 51.205 49.5275 54.9325 48.6675L54.5375 54.5837C50.9425 55.555 47.3462 56.5275 43.75 57.5C43.75 60 43.75 62.5 43.75 65C49.055 63.4763 54.36 61.9538 59.665 60.43L61.3275 41.1037C57.5525 41.5687 53.7762 42.035 50 42.5C50 38.3338 50 34.1662 50 30C54.0925 30.02 58.1837 30.04 62.2762 30.06Z" fill="#FAEFDE"/>
<path d="M36.25 66.0187C36.135 66.0187 36.02 66.0025 35.9075 65.9713L19.1762 61.2025C18.6837 61.0625 18.3275 60.6363 18.275 60.1275L17.5062 52.6275C17.4662 52.2275 17.62 51.8325 17.9187 51.5662C18.22 51.2987 18.6275 51.1925 19.0212 51.28L28.75 53.4412V23.75C28.75 23.06 29.3087 22.5 30 22.5H36.25C36.9412 22.5 37.5 23.06 37.5 23.75V64.7687C37.5 65.16 37.3162 65.53 37.0037 65.7662C36.7837 65.9325 36.5187 66.0187 36.25 66.0187ZM20.6762 59.03L35 63.1125V25H31.25V55C31.25 55.3788 31.0775 55.7375 30.7825 55.975C30.4862 56.2125 30.1 56.3025 29.7287 56.22L20.17 54.0963L20.6762 59.03Z" fill="#8D6C9F"/>
<path d="M43.75 66.25C43.4812 66.25 43.2175 66.1637 42.9975 65.9987C42.6837 65.7625 42.5 65.3925 42.5 65V57.5C42.5 56.935 42.8787 56.44 43.4237 56.2937L53.3488 53.61L53.5725 50.2637L44.03 52.4675C43.6637 52.5562 43.2712 52.4663 42.9712 52.2288C42.6712 51.9913 42.5 51.6313 42.5 51.25V23.75C42.5 23.06 43.0588 22.5 43.75 22.5H62.8212C63.1712 22.5 63.5062 22.6475 63.7425 22.905C63.9787 23.1637 64.0962 23.5088 64.0662 23.8575L63.5213 30.1675C63.4663 30.8163 62.87 31.35 62.27 31.31L51.25 31.2562V41.0862L61.175 39.8625C61.545 39.8175 61.9238 39.9412 62.195 40.2025C62.4663 40.4637 62.605 40.8337 62.5725 41.21L60.91 60.5363C60.8663 61.0525 60.5075 61.4875 60.01 61.63L44.095 66.1987C43.9825 66.2337 43.8663 66.25 43.75 66.25ZM45 58.4575V63.3413L58.4937 59.4663L59.95 42.5338L50.1525 43.7413C49.8013 43.7838 49.4413 43.6738 49.1725 43.4363C48.9038 43.1988 48.75 42.8588 48.75 42.5V30C48.75 29.6675 48.8825 29.3488 49.1187 29.1138C49.355 28.8788 49.635 28.7562 50.0063 28.75L61.13 28.805L61.4587 25H45V49.6788L54.6525 47.45C55.0363 47.3587 55.4425 47.4588 55.7438 47.7163C56.045 47.9725 56.2062 48.3562 56.1812 48.7512L55.7863 54.6675C55.7513 55.2 55.38 55.6512 54.865 55.79L45 58.4575Z" fill="#8D6C9F"/>
</svg>
